<mxfile host="app.diagrams.net" modified="2024-01-30T10:46:31.967Z" agent="Mozilla/5.0 (Windows NT 10.0; Win64; x64) AppleWebKit/537.36 (KHTML, like Gecko) Chrome/120.0.0.0 Safari/537.36" etag="vmqoFfQ1uyCEAg4qn6Ki" version="23.0.2" type="github">
  <diagram name="Page-1" id="k95cxu96PvpANKo54gbj">
    <mxGraphModel dx="2221" dy="1920" grid="1" gridSize="10" guides="1" tooltips="1" connect="1" arrows="1" fold="1" page="1" pageScale="1" pageWidth="850" pageHeight="1100" math="0" shadow="0">
      <root>
        <mxCell id="0" />
        <mxCell id="1" parent="0" />
        <mxCell id="baXqkoT-ITb4Wg0HV_Db-16" value="" style="rounded=1;whiteSpace=wrap;html=1;absoluteArcSize=1;arcSize=14;strokeWidth=2;" vertex="1" parent="1">
          <mxGeometry width="850" height="660" as="geometry" />
        </mxCell>
        <mxCell id="baXqkoT-ITb4Wg0HV_Db-14" style="edgeStyle=orthogonalEdgeStyle;rounded=0;orthogonalLoop=1;jettySize=auto;html=1;entryX=0;entryY=0.5;entryDx=0;entryDy=0;" edge="1" parent="1" source="baXqkoT-ITb4Wg0HV_Db-1" target="baXqkoT-ITb4Wg0HV_Db-7">
          <mxGeometry relative="1" as="geometry">
            <Array as="points">
              <mxPoint x="120" y="525" />
            </Array>
          </mxGeometry>
        </mxCell>
        <mxCell id="baXqkoT-ITb4Wg0HV_Db-1" value="4G路由器&lt;br style=&quot;font-size: 18px;&quot;&gt;OpenWRT" style="whiteSpace=wrap;html=1;aspect=fixed;fontSize=18;" vertex="1" parent="1">
          <mxGeometry x="30" y="240" width="180" height="180" as="geometry" />
        </mxCell>
        <mxCell id="baXqkoT-ITb4Wg0HV_Db-2" value="&lt;font color=&quot;#ff3333&quot; style=&quot;font-size: 16px;&quot;&gt;sockstun&lt;/font&gt;" style="strokeWidth=2;html=1;shape=mxgraph.flowchart.stored_data;whiteSpace=wrap;" vertex="1" parent="1">
          <mxGeometry x="80" y="370" width="100" height="40" as="geometry" />
        </mxCell>
        <mxCell id="baXqkoT-ITb4Wg0HV_Db-11" style="edgeStyle=orthogonalEdgeStyle;rounded=0;orthogonalLoop=1;jettySize=auto;html=1;exitX=0.5;exitY=1;exitDx=0;exitDy=0;" edge="1" parent="1" source="baXqkoT-ITb4Wg0HV_Db-3">
          <mxGeometry relative="1" as="geometry">
            <mxPoint x="430" y="430" as="targetPoint" />
          </mxGeometry>
        </mxCell>
        <mxCell id="baXqkoT-ITb4Wg0HV_Db-3" value="4G路由器&lt;br style=&quot;font-size: 18px;&quot;&gt;OpenWRT" style="whiteSpace=wrap;html=1;aspect=fixed;fontSize=18;" vertex="1" parent="1">
          <mxGeometry x="340" y="10" width="180" height="180" as="geometry" />
        </mxCell>
        <mxCell id="baXqkoT-ITb4Wg0HV_Db-4" value="&lt;font color=&quot;#ff3333&quot; style=&quot;font-size: 16px;&quot;&gt;sockstun&lt;/font&gt;" style="strokeWidth=2;html=1;shape=mxgraph.flowchart.stored_data;whiteSpace=wrap;" vertex="1" parent="1">
          <mxGeometry x="380" y="140" width="100" height="40" as="geometry" />
        </mxCell>
        <mxCell id="baXqkoT-ITb4Wg0HV_Db-13" style="edgeStyle=orthogonalEdgeStyle;rounded=0;orthogonalLoop=1;jettySize=auto;html=1;exitX=0.5;exitY=1;exitDx=0;exitDy=0;entryX=1;entryY=0.5;entryDx=0;entryDy=0;" edge="1" parent="1" source="baXqkoT-ITb4Wg0HV_Db-5" target="baXqkoT-ITb4Wg0HV_Db-7">
          <mxGeometry relative="1" as="geometry">
            <mxPoint x="550" y="540" as="targetPoint" />
          </mxGeometry>
        </mxCell>
        <mxCell id="baXqkoT-ITb4Wg0HV_Db-5" value="4G路由器&lt;br style=&quot;font-size: 18px;&quot;&gt;OpenWRT" style="whiteSpace=wrap;html=1;aspect=fixed;fontSize=18;" vertex="1" parent="1">
          <mxGeometry x="640" y="240" width="180" height="180" as="geometry" />
        </mxCell>
        <mxCell id="baXqkoT-ITb4Wg0HV_Db-6" value="&lt;font color=&quot;#ff3333&quot; style=&quot;font-size: 16px;&quot;&gt;sockstun&lt;/font&gt;" style="strokeWidth=2;html=1;shape=mxgraph.flowchart.stored_data;whiteSpace=wrap;" vertex="1" parent="1">
          <mxGeometry x="690" y="370" width="100" height="40" as="geometry" />
        </mxCell>
        <mxCell id="baXqkoT-ITb4Wg0HV_Db-7" value="&lt;font style=&quot;font-size: 20px;&quot; color=&quot;#ff3333&quot;&gt;sockstun Server&lt;/font&gt;" style="rounded=1;whiteSpace=wrap;html=1;absoluteArcSize=1;arcSize=14;strokeWidth=2;" vertex="1" parent="1">
          <mxGeometry x="324" y="430" width="206" height="190" as="geometry" />
        </mxCell>
      </root>
    </mxGraphModel>
  </diagram>
</mxfile>
